<?xml version="1.0" encoding="iso-8859-1"?>
<!-- Generator: Adobe Illustrator 19.1.0, SVG Export Plug-In . SVG Version: 6.00 Build 0)  -->
<svg version="1.1" id="Capa_1" xmlns="http://www.w3.org/2000/svg" xmlns:xlink="http://www.w3.org/1999/xlink" x="0px" y="0px"
	 viewBox="0 0 480.811 480.811" style="enable-background:new 0 0 480.811 480.811;" xml:space="preserve">
<g>
	<g>
		<path style="fill:#263238;" d="M413.81,443.658H67.001c-29.733,0-53.925-22.057-53.925-49.196V241.491
			c0-2.841,1.306-5.505,3.547-7.235c2.241-1.747,5.17-2.329,7.888-1.623l74.871,19.375c4.041,1.041,6.864,4.676,6.864,8.84v18.105
			l28.551-1.412l-1.412-4.941c0-2.841,1.306-5.505,3.547-7.235c2.259-1.747,5.188-2.347,7.888-1.623l95.587,24.739l99.098-25.639
			c2.7-0.688,5.647-0.124,7.888,1.623c2.241,1.729,3.547,4.394,3.547,7.235v7.235l28.551-1.412l-1.412-17.575
			c0-4.164,2.823-7.817,6.864-8.858l71.377-18.475c2.717-0.723,5.629-0.106,7.888,1.623c2.241,1.729,3.547,4.394,3.547,7.235
			v152.936C467.753,421.6,443.561,443.658,413.81,443.658z M31.356,253.313v141.166c0,17.046,15.987,30.898,35.644,30.898H413.81
			c19.657,0,35.644-13.852,35.644-30.898v-141.13l-53.096,13.746v11.911c0,9.299-7.57,16.869-16.887,16.869h-29.962
			c-7.782,0-14.346-5.294-16.305-12.458l-90.523,23.416c-1.5,0.388-3.07,0.388-4.57-0.018l-87.276-22.587
			c-2.206,6.758-8.576,11.629-16.058,11.629h-29.962c-9.299,0-16.869-7.57-16.869-16.869v-11.046L31.356,253.313z"/>
		<path style="fill:#263238;" d="M240.405,270.641c-0.776,0-1.535-0.088-2.294-0.3l-97.881-25.339
			c-4.041-1.041-6.864-4.676-6.864-8.841v-22.498l-28.568,1.412l1.412,9.317c0,2.841-1.306,5.505-3.547,7.235
			c-2.241,1.765-5.153,2.365-7.888,1.623L6.829,210.487C2.823,209.446,0,205.793,0,201.629v-42.42
			c0-28.445,25.392-51.578,56.625-51.578h367.578c31.215,0,56.607,23.134,56.607,51.578v42.456c0,4.164-2.823,7.817-6.864,8.858
			l-84.452,21.845c-2.717,0.688-5.647,0.106-7.888-1.623c-2.241-1.729-3.547-4.394-3.547-7.235v-9.864l-28.551,1.412l1.412,20.187
			c0,4.164-2.823,7.817-6.864,8.858l-101.375,26.222C241.941,270.535,241.182,270.641,240.405,270.641z M151.665,229.086
			l88.74,22.975l92.234-23.857v-14.522c0-9.299,7.57-16.869,16.887-16.869h29.962c8.664,0,15.811,6.547,16.781,14.946l66.26-17.152
			v-35.397c0-18.369-17.187-33.297-38.309-33.297H56.625c-21.14,0-38.327,14.928-38.327,33.297v35.344l69.701,18.034
			c0.565-8.805,7.888-15.793,16.834-15.793h29.98c9.317,0,16.887,7.57,16.887,16.869v15.422H151.665z"/>
		<path style="fill:#263238;" d="M362.284,99.213H330.01c-5.047,0-9.141-4.094-9.141-9.14V72.745
			c0-11.84-9.635-21.475-21.475-21.475H181.31c-11.84,0-21.475,9.635-21.475,21.475v17.328c0,5.047-4.094,9.14-9.14,9.14h-32.168
			c-5.047,0-9.14-4.094-9.14-9.14V61.239c0-29.61,24.069-53.678,53.661-53.678h154.718c29.592,0,53.661,24.086,53.661,53.678v28.833
			C371.442,95.119,367.331,99.213,362.284,99.213z M339.168,80.932h13.975V61.239c0-19.516-15.863-35.397-35.38-35.397H163.046
			c-19.499,0-35.38,15.881-35.38,35.397v19.693h13.905v-8.188c0-21.916,17.84-39.756,39.756-39.756h118.085
			c21.916,0,39.756,17.84,39.756,39.756V80.932z"/>
		<path style="fill:#263238;" d="M432.391,473.249H48.438c-4.941,0-8.982-4.041-8.982-8.964l0,0c0-4.941,4.041-8.982,8.982-8.982
			h383.953c4.941,0,8.982,4.041,8.982,8.982l0,0C441.355,469.209,437.332,473.249,432.391,473.249z"/>
	</g>
	<g>
	</g>
	<g>
	</g>
	<g>
	</g>
	<g>
	</g>
	<g>
	</g>
	<g>
	</g>
	<g>
	</g>
	<g>
	</g>
	<g>
	</g>
	<g>
	</g>
	<g>
	</g>
	<g>
	</g>
	<g>
	</g>
	<g>
	</g>
	<g>
	</g>
</g>
<g>
</g>
<g>
</g>
<g>
</g>
<g>
</g>
<g>
</g>
<g>
</g>
<g>
</g>
<g>
</g>
<g>
</g>
<g>
</g>
<g>
</g>
<g>
</g>
<g>
</g>
<g>
</g>
<g>
</g>
</svg>
