<?xml version="1.0" encoding="UTF-8"?>
<!DOCTYPE svg PUBLIC "-//W3C//DTD SVG 1.1//EN" "http://www.w3.org/Graphics/SVG/1.1/DTD/svg11.dtd">
<!-- Creator: CorelDRAW X7 -->
<svg xmlns="http://www.w3.org/2000/svg" xml:space="preserve" width="1574px" height="848px" version="1.1" style="shape-rendering:geometricPrecision; text-rendering:geometricPrecision; image-rendering:optimizeQuality; fill-rule:evenodd; clip-rule:evenodd"
viewBox="0 0 1106 596"
 xmlns:xlink="http://www.w3.org/1999/xlink">
 <defs>
  <style type="text/css">
   <![CDATA[
    .fil2 {fill:white}
    .fil1 {fill:#E8C007;fill-rule:nonzero}
    .fil0 {fill:white;fill-rule:nonzero}
   ]]>
  </style>
 </defs>
 <g id="Слой_x0020_1">
  <metadata id="CorelCorpID_0Corel-Layer"/>
  <g id="_2362543831072">
   <path class="fil0" d="M634 389l0 -177 24 0 0 155 51 0 0 22 -75 0zm99 0l0 -177 71 0 0 22 -47 0 0 52 43 0 0 21 -43 0 0 60 47 0 0 22 -71 0zm145 0l-21 0 -38 -177 24 0 25 120 24 -120 25 0 -39 177zm59 0l0 -177 70 0 0 22 -46 0 0 52 43 0 0 21 -43 0 0 60 46 0 0 22 -70 0zm94 0l0 -177 24 0 0 155 51 0 0 22 -75 0z"/>
   <path class="fil1" d="M635 596l0 -177 72 0 0 21 -49 0 0 53 45 0 0 21 -45 0 0 82 -23 0zm95 0l0 -177 24 0 0 177 -24 0zm100 0l-20 0 -38 -177 24 0 24 120 25 -120 24 0 -39 177zm59 0l0 -177 71 0 0 21 -47 0 0 53 44 0 0 21 -44 0 0 60 47 0 0 22 -71 0z"/>
   <path class="fil2" d="M68 0l0 528 460 0 0 -249 -210 0 0 -172 278 0 0 66 -212 0 0 39 212 0 0 384 -596 0 0 -596 68 0zm105 0l0 423 250 0 0 -39 -211 0 0 -384 384 0 0 68 -318 0 0 250 211 0 0 171 -382 0 0 -489 66 0z"/>
  </g>
 </g>
</svg>
